# xmcd
#
# Track frame offsets:
#	150
#	24417
#	43799
#	65141
#	81587
#	108494
#	136688
#	162512
#	184632
#	206825
#	236867
#	262093
#
# Disc length: 3813 seconds
#
# Revision: 1
# Processed by: cddbd v1.5.2PL0 Copyright (c) Steve Scherf et al.
# Submitted via: audiograbber 1.83.01
#
DISCID=b40ee30c
DTITLE=Englisch Lernen mit The Grooves - Groovy Verbs
DYEAR=2012
DGENRE=
TTITLE0=Live and Learn
TTITLE1=Everyday Madness
TTITLE2=A Pretty Penny
TTITLE3=Fun is the Fashion
TTITLE4=Sunshine Reggae
TTITLE5=Monkey Business
TTITLE6=Verbs in Love
TTITLE7=Be a Sport
TTITLE8=Crime Rhymes
TTITLE9=Yummy Yummy
TTITLE10=Twenty-Four-Seven
TTITLE11=Chill Out
EXTD=
EXTT0=
EXTT1=
EXTT2=
EXTT3=
EXTT4=
EXTT5=
EXTT6=
EXTT7=
EXTT8=
EXTT9=
EXTT10=
EXTT11=
PLAYORDER=
